<?xml version="1.0" encoding="utf-8"?>
<!-- Generator: Adobe Illustrator 27.0.0, SVG Export Plug-In . SVG Version: 6.00 Build 0)  -->
<svg version="1.1" id="Layer_1" xmlns="http://www.w3.org/2000/svg" xmlns:xlink="http://www.w3.org/1999/xlink" x="0px" y="0px"
	 width="1920px" height="1080px" viewBox="0 0 1920 1080" style="enable-background:new 0 0 1920 1080;" xml:space="preserve">
<style type="text/css">
	.st0{fill:#F4F4F4;}
	.st1{fill:none;stroke:#D3CFD3;stroke-miterlimit:10;}
	.st2{opacity:0.5;fill:#E8F9BB;}
	.st3{opacity:0.1;fill:#F09CF2;}
	.st4{opacity:0.1;fill:#F0F0F0;}
	.st5{opacity:0.63;}
	.st6{display:none;fill:#F0554A;}
	.st7{display:none;fill:none;stroke:#FFFFFF;stroke-width:1.5456;stroke-miterlimit:10;}
	.st8{display:none;}
	.st9{display:inline;fill:#F6F6F6;stroke:#FFFFFF;stroke-width:10;stroke-miterlimit:10;}
	.st10{display:inline;fill:#F6F6F6;stroke:#FFFFFF;stroke-width:5.7809;stroke-miterlimit:10;}
	.st11{display:inline;}
	.st12{fill:none;stroke:#000000;stroke-width:0.3646;stroke-miterlimit:10;}
	.st13{fill:url(#SVGID_1_);}
	.st14{fill:none;}
	.st15{fill:none;stroke:#000000;stroke-width:5;stroke-miterlimit:10;}
	.st16{fill:none;stroke:#E139E5;stroke-width:2;stroke-miterlimit:10;}
	.st17{fill:#F6F6F6;stroke:#000000;stroke-width:0.3151;stroke-miterlimit:10;}
	.st18{enable-background:new    ;}
	.st19{clip-path:url(#SVGID_00000029041781749042012060000000242069270140503465_);enable-background:new    ;}
	.st20{fill:#858585;}
	.st21{fill:#808080;}
	.st22{fill:#8B8B8B;}
	.st23{clip-path:url(#SVGID_00000099629153888624846820000013525476713180843710_);enable-background:new    ;}
	.st24{clip-path:url(#SVGID_00000139291730554658127620000001048192877990580663_);enable-background:new    ;}
	.st25{fill:#8A8A8A;}
	.st26{fill:#F6F6F6;}
	.st27{clip-path:url(#SVGID_00000036228515541612369820000003481300039951273135_);enable-background:new    ;}
	.st28{clip-path:url(#SVGID_00000062179110719515680700000017138508068843473838_);enable-background:new    ;}
	.st29{clip-path:url(#SVGID_00000061453384098274288010000010890104559865905556_);enable-background:new    ;}
	.st30{fill:#848484;}
	.st31{clip-path:url(#SVGID_00000180354124642982253570000002303483405774202011_);enable-background:new    ;}
	.st32{clip-path:url(#SVGID_00000089543541148924234970000002359666621441668280_);enable-background:new    ;}
	.st33{clip-path:url(#SVGID_00000065061171382896179120000014315261870474608272_);enable-background:new    ;}
	.st34{clip-path:url(#SVGID_00000111893962814045086770000009082187435579060639_);enable-background:new    ;}
	.st35{clip-path:url(#SVGID_00000080198378083852439940000002215779987112968331_);enable-background:new    ;}
	.st36{clip-path:url(#SVGID_00000143603085254485189400000011242022845630898088_);enable-background:new    ;}
	.st37{clip-path:url(#SVGID_00000155841764830278333910000011585890687843276953_);enable-background:new    ;}
	.st38{clip-path:url(#SVGID_00000003815869617235750380000007505401693911136425_);enable-background:new    ;}
	.st39{clip-path:url(#SVGID_00000089568325812519712990000010002966031693964195_);enable-background:new    ;}
	.st40{clip-path:url(#SVGID_00000075873833587154969280000007777811868676525238_);enable-background:new    ;}
	.st41{clip-path:url(#SVGID_00000027582471596068533940000000205697196622060974_);enable-background:new    ;}
	.st42{clip-path:url(#SVGID_00000109736881895942695020000015101204189670267528_);enable-background:new    ;}
	.st43{fill:#323232;}
	.st44{clip-path:url(#SVGID_00000037655268836837137290000008699686893622069650_);enable-background:new    ;}
	.st45{clip-path:url(#SVGID_00000136386455804088233090000013199254600564445105_);enable-background:new    ;}
	.st46{clip-path:url(#SVGID_00000025436091027746165510000011254560980008635035_);enable-background:new    ;}
	.st47{clip-path:url(#SVGID_00000147218686223245786130000017292374782713353392_);enable-background:new    ;}
	.st48{clip-path:url(#SVGID_00000119086585342257150460000005369185061945846174_);enable-background:new    ;}
	.st49{clip-path:url(#SVGID_00000002383133609349141690000015951577867527740817_);enable-background:new    ;}
	.st50{clip-path:url(#SVGID_00000114786585177986357660000011837267316379096764_);enable-background:new    ;}
	.st51{clip-path:url(#SVGID_00000042726453405225861180000001864195893723898037_);enable-background:new    ;}
	.st52{clip-path:url(#SVGID_00000178195359261949023630000001750329264508018338_);enable-background:new    ;}
	.st53{fill:#FC10CA;}
	.st54{clip-path:url(#SVGID_00000105384547145643248480000000984840175718895773_);}
	.st55{clip-path:url(#SVGID_00000132774515548105626090000007352850670944978358_);}
	.st56{clip-path:url(#SVGID_00000130636738646984076230000001640864716168107922_);}
	.st57{clip-path:url(#SVGID_00000183928922060095132430000016170094266934016697_);}
	.st58{stroke:#000000;stroke-width:0.9452;stroke-miterlimit:10;}
	.st59{fill:#F6F6F6;stroke:#000000;stroke-width:0.1838;stroke-miterlimit:10;}
	.st60{opacity:0.5;fill:#E139E5;}
	.st61{fill:#FFFFFF;}
	.st62{fill:none;stroke:#7F7E7E;stroke-width:2;stroke-miterlimit:10;}
	.st63{fill:#7B7B7B;}
	.st64{fill:#E6E6E6;}
	.st65{opacity:0.5;stroke:#FFFFFF;stroke-width:2.5206;}
	.st66{opacity:0.5;stroke:#FFFFFF;stroke-width:2.5206;stroke-miterlimit:10;}
	.st67{fill:#F6F6F6;stroke:#000000;stroke-width:0.6301;stroke-miterlimit:10;}
	.st68{fill:none;stroke:#E139E5;stroke-width:1.7347;stroke-linecap:round;stroke-linejoin:round;stroke-miterlimit:10;}
	.st69{fill:#525252;}
	.st70{fill:none;stroke:#525252;stroke-width:1.7016;stroke-miterlimit:10;}
	.st71{fill:#F6F6F6;stroke:#000000;stroke-width:0.2385;stroke-miterlimit:10;}
	.st72{fill:none;stroke:#000000;stroke-miterlimit:10;}
	.st73{opacity:0.6;}
	.st74{fill:#FF6400;}
	.st75{fill:#F7DECB;}
	.st76{fill:#FDF8F5;stroke:#D8D0CE;stroke-width:0.5138;stroke-miterlimit:10;}
	.st77{fill:#E60012;}
	.st78{fill:#FFCC00;}
	.st79{fill:#A699A7;}
	.st80{fill:#FFFFFF;stroke:#D8D0CE;stroke-width:0.3752;stroke-miterlimit:10;}
	.st81{fill:#F34753;}
	.st82{fill:none;stroke:#A7A9AC;stroke-width:1.7763;stroke-linecap:round;stroke-linejoin:round;stroke-miterlimit:10;}
	.st83{fill:url(#SVGID_00000031922221914627030200000006566088428521568917_);}
	.st84{fill:#D1D3D4;}
	.st85{fill:#BCBEC0;}
	.st86{fill:#0398D1;}
	.st87{fill:none;stroke:#A7A9AC;stroke-width:2.0117;stroke-linecap:round;stroke-linejoin:round;stroke-miterlimit:10;}
	.st88{fill:url(#SVGID_00000062153473652872868410000003892937515331326851_);}
	.st89{clip-path:url(#SVGID_00000162345137238550920990000007758008370773707660_);}
	.st90{fill:#E139E5;}
	.st91{fill:#2B7AED;}
	.st92{fill:#EF5460;}
	.st93{fill:none;stroke:#A7A9AC;stroke-width:1.7781;stroke-linecap:round;stroke-linejoin:round;stroke-miterlimit:10;}
	.st94{fill:url(#SVGID_00000181064128537121027110000017283019744076729229_);}
	.st95{fill:none;stroke:#A7A9AC;stroke-width:2.0232;stroke-linecap:round;stroke-linejoin:round;stroke-miterlimit:10;}
	.st96{fill:url(#SVGID_00000152259480818643501940000011043132419100398480_);}
</style>
<path class="st68" d="M398.324,294.552c-80.562,55.726-135.988,146.444-148.809,243.558c-6.312,47.81,0.776,103.502,39.896,131.702
	c28.546,20.578,67.729,20.9,101.22,10.098s62.829-31.297,92.335-50.474c73.166-47.555,150.574-88.582,231.004-122.433
	c45.665-19.219,101.813-35.036,141.637-5.563c33.221,24.586,40.65,72.132,33.237,112.791
	c-8.275,45.388-31.112,86.997-40.706,132.125c-9.594,45.127-1.529,99.748,37.507,124.339c34.718,21.87,82.02,11.445,115.17-12.736
	s55.931-59.569,80.426-92.488c18.398-24.726,38.719-48.954,65.301-64.551c26.581-15.598,60.701-21.308,88.41-7.813
	c43.174,21.026,54.313,76.363,59.883,124.061c5.57,47.697,15.644,102.935,58.158,125.265c38.104,20.013,85.375,3.287,121.02-20.834
	c59.709-40.404,105.082-101.557,126.441-170.415"/>
<g>
	<rect x="762.541" y="450.577" class="st61" width="139.479" height="75"/>
	<g>
		<path d="M810.322,488.63l0.012,2.7c0.007,1.561-0.325,3.024-0.994,4.392c-0.669,1.368-1.625,2.564-2.865,3.59
			c-1.24,1.025-2.744,1.834-4.512,2.427c-1.768,0.592-3.762,0.894-5.981,0.902c-2.22,0.01-4.216-0.327-5.989-1.009
			c-1.773-0.683-3.285-1.614-4.535-2.793c-1.25-1.18-2.215-2.556-2.896-4.128c-0.682-1.572-1.027-3.258-1.034-5.058l-0.056-13.095
			c-0.008-1.8,0.322-3.489,0.991-5.067c0.669-1.577,1.622-2.961,2.862-4.151s2.743-2.134,4.511-2.832
			c1.767-0.697,3.761-1.051,5.98-1.061c2.22-0.009,4.216,0.274,5.989,0.853c1.771,0.577,3.283,1.358,4.532,2.343
			c1.249,0.985,2.214,2.129,2.895,3.431s1.024,2.673,1.03,4.113l0.012,2.7l-2.611,0.011l-0.008-1.89
			c-0.012-2.91-1.027-5.177-3.043-6.805c-2.018-1.626-4.946-2.431-8.786-2.416c-3.841,0.017-6.761,1.057-8.762,3.12
			c-2.001,2.063-2.995,4.88-2.979,8.45l0.049,11.475c0.015,3.57,1.031,6.378,3.051,8.425c2.018,2.046,4.947,3.062,8.787,3.045
			c3.84-0.016,6.762-0.869,8.766-2.557c2.002-1.688,2.997-4.092,2.984-7.212l-0.008-1.89L810.322,488.63z"/>
		<path d="M835.684,484.248l-0.005-1.08c-0.012-2.79-0.771-4.789-2.275-5.998s-3.878-1.806-7.117-1.792
			c-1.501,0.006-2.812,0.2-3.935,0.58s-2.053,0.886-2.784,1.519c-0.733,0.633-1.276,1.355-1.634,2.167
			c-0.355,0.812-0.532,1.668-0.529,2.567l0.004,0.721l-2.609,0.011l-0.006-1.17c-0.004-1.08,0.23-2.139,0.707-3.176
			c0.475-1.037,1.199-1.97,2.17-2.799c0.972-0.829,2.177-1.495,3.615-1.996c1.438-0.501,3.101-0.756,4.99-0.764
			c4.051-0.017,7.061,0.796,9.033,2.438c1.972,1.642,2.965,4.053,2.979,7.232l0.081,19.215l-2.61,0.011l-0.018-4.23
			c-0.238,0.511-0.671,1.045-1.299,1.603c-0.627,0.558-1.398,1.078-2.311,1.562c-0.913,0.483-1.961,0.878-3.145,1.184
			c-1.185,0.304-2.421,0.46-3.711,0.465c-1.68,0.007-3.211-0.144-4.592-0.453s-2.568-0.792-3.561-1.448
			c-0.993-0.656-1.77-1.462-2.328-2.42c-0.56-0.958-0.842-2.096-0.848-3.416c-0.011-2.7,1.061-4.782,3.215-6.247
			c2.154-1.463,5.283-2.475,9.391-3.032L835.684,484.248z M826.562,487.842c-1.559,0.217-2.952,0.485-4.181,0.805
			c-1.229,0.32-2.276,0.753-3.145,1.296c-0.868,0.544-1.532,1.207-1.993,1.989c-0.463,0.782-0.69,1.728-0.686,2.837
			c0.008,1.8,0.762,3.154,2.267,4.063c1.503,0.908,3.651,1.356,6.44,1.345c1.229-0.005,2.467-0.175,3.711-0.51
			c1.242-0.336,2.365-0.828,3.368-1.477s1.816-1.447,2.442-2.395c0.627-0.948,0.937-2.021,0.932-3.221l-0.025-5.985L826.562,487.842
			z"/>
		<path d="M845.701,480.155c0.475-0.992,1.123-1.924,1.945-2.798c0.821-0.874,1.755-1.628,2.803-2.262
			c1.047-0.635,2.207-1.119,3.481-1.455c1.274-0.335,2.601-0.461,3.981-0.377l0.01,2.52c-1.471-0.083-2.85,0.073-4.138,0.467
			c-1.288,0.396-2.448,0.956-3.479,1.68c-1.033,0.725-1.938,1.591-2.713,2.6c-0.775,1.009-1.4,2.083-1.875,3.225l0.076,18.09
			l-2.7,0.011l-0.12-28.439l2.699-0.012L845.701,480.155z"/>
		<path d="M883.161,463.617l0.161,38.069l-11.925,0.051c-2.19,0.009-4.074-0.366-5.652-1.124c-1.579-0.758-2.873-1.788-3.884-3.088
			c-1.011-1.301-1.76-2.828-2.246-4.581c-0.488-1.753-0.736-3.634-0.744-5.645c-0.008-1.979,0.246-3.826,0.764-5.538
			c0.518-1.712,1.291-3.193,2.322-4.442c1.029-1.249,2.322-2.229,3.879-2.941c1.557-0.711,3.371-1.072,5.441-1.081l9.314-0.04
			l-0.041-9.63L883.161,463.617z M870.611,475.64c-1.5,0.007-2.818,0.32-3.955,0.939c-1.139,0.62-2.087,1.457-2.848,2.51
			c-0.76,1.054-1.34,2.286-1.739,3.697c-0.399,1.412-0.595,2.913-0.589,4.503c0.008,1.65,0.201,3.209,0.583,4.678
			c0.381,1.468,0.956,2.756,1.726,3.862c0.771,1.106,1.733,1.979,2.892,2.62c1.157,0.64,2.501,0.957,4.032,0.95l9.988-0.042
			l-0.1-23.76L870.611,475.64z M871.723,482.971c0.098,1.77,0.484,2.983,1.163,3.64c0.677,0.658,1.766,1.013,3.267,1.066
			c-1.5,0.067-2.586,0.432-3.258,1.094c-0.672,0.663-1.049,1.88-1.131,3.65c-0.099-1.77-0.494-2.983-1.187-3.641
			c-0.692-0.656-1.774-1.012-3.244-1.066c1.469-0.065,2.548-0.43,3.235-1.094C871.256,485.958,871.641,484.741,871.723,482.971z"/>
	</g>
</g>
<g>
	<path d="M857.706,200.98l0.014,3.25c0.012,2.904-0.528,5.527-1.62,7.872c-1.093,2.345-2.634,4.333-4.623,5.967
		c-1.989,1.634-4.387,2.889-7.19,3.768c-2.804,0.878-5.89,1.325-9.259,1.339s-6.459-0.45-9.271-1.391
		c-2.812-0.942-5.22-2.286-7.224-4.032s-3.562-3.853-4.674-6.318c-1.113-2.465-1.676-5.236-1.688-8.313l-0.069-16.314
		c-0.013-3.077,0.526-5.853,1.618-8.327c1.091-2.475,2.631-4.594,4.62-6.357c1.989-1.764,4.386-3.127,7.189-4.093
		c2.804-0.964,5.89-1.455,9.259-1.469c3.369-0.015,6.458,0.406,9.27,1.261c2.812,0.855,5.219,2.09,7.222,3.707
		c2.004,1.616,3.562,3.592,4.674,5.928c1.111,2.335,1.674,4.955,1.687,7.858l0.011,2.6l-12.478,0.053l-0.008-1.95
		c-0.014-3.033-0.928-5.304-2.744-6.813c-1.815-1.509-4.345-2.257-7.589-2.243s-5.768,0.913-7.569,2.697
		c-1.802,1.785-2.695,4.366-2.681,7.747l0.063,15.015c0.014,3.38,0.93,5.955,2.746,7.724c1.816,1.77,4.348,2.646,7.592,2.633
		s5.768-0.782,7.57-2.307c1.803-1.524,2.698-3.803,2.686-6.836l-0.011-2.6L857.706,200.98z"/>
	<path d="M881.7,180.209c3.16-0.014,6.001,0.452,8.521,1.394c2.521,0.943,4.657,2.223,6.411,3.841s3.104,3.497,4.048,5.638
		c0.945,2.141,1.423,4.404,1.433,6.787l0.031,7.345c0.011,2.557-0.447,4.909-1.374,7.058s-2.26,4.028-4,5.64
		c-1.74,1.61-3.867,2.865-6.379,3.764c-2.514,0.898-5.35,1.355-8.511,1.369s-6.002-0.419-8.521-1.296
		c-2.521-0.878-4.657-2.115-6.411-3.71c-1.753-1.596-3.102-3.464-4.047-5.605s-1.423-4.489-1.434-7.046l-0.031-7.345
		c-0.01-2.383,0.448-4.65,1.375-6.798c0.927-2.149,2.26-4.04,3.999-5.672c1.74-1.632,3.866-2.93,6.379-3.895
		C875.702,180.711,878.539,180.222,881.7,180.209z M881.712,183.134c-0.1,6.068-1.369,10.633-3.811,13.699
		s-6.344,4.674-11.708,4.827c5.365,0.151,9.282,1.813,11.75,4.988c2.467,3.175,3.775,7.644,3.925,13.406
		c0.059-5.807,1.308-10.308,3.749-13.504c2.439-3.195,6.363-4.891,11.77-5.087c-5.407-0.107-9.345-1.672-11.812-4.695
		C883.108,193.746,881.82,189.201,881.712,183.134z"/>
	<path d="M938.519,183.381c2.983,2.437,4.489,6.666,4.515,12.688l0.109,25.805l-12.229,0.052l-0.104-24.504
		c-0.022-5.243-2.318-7.227-6.889-5.951l-5.234,1.453l0.123,29.055l-12.228,0.051l-0.174-41.015l12.228-0.051l0.008,1.95l7.106-1.46
		C931.277,180.303,935.534,180.946,938.519,183.381z"/>
	<path d="M971.341,221.755l-5.428,0.023c-2.829,0.012-5.18-0.444-7.056-1.368c-1.875-0.924-3.357-2.174-4.445-3.751
		c-1.089-1.578-1.855-3.415-2.301-5.516c-0.445-2.099-0.673-4.319-0.684-6.659l-0.056-13.195l-5.49,0.023l-0.044-10.4l5.49-0.023
		l-0.06-14.105l12.228-0.052l0.06,14.105l7.611-0.032l0.044,10.399l-7.611,0.032l0.06,14.105c0.01,2.124,0.442,3.661,1.299,4.61
		c0.856,0.95,2.034,1.421,3.531,1.415l2.808-0.012L971.341,221.755z"/>
	<path d="M985.998,205.963c0.005,1.17,0.217,2.199,0.636,3.085c0.42,0.887,0.995,1.621,1.726,2.203
		c0.729,0.582,1.563,1.023,2.501,1.322c0.938,0.3,1.926,0.447,2.966,0.442c2.246-0.009,4.002-0.287,5.269-0.834
		c1.266-0.547,1.896-1.34,1.893-2.38l-0.005-1.235l12.228-0.052l0.008,1.885c0.007,1.734-0.476,3.339-1.445,4.816
		c-0.972,1.477-2.318,2.761-4.039,3.853c-1.722,1.09-3.767,1.943-6.135,2.561c-2.368,0.616-4.946,0.931-7.732,0.943
		c-2.869,0.012-5.523-0.399-7.96-1.234s-4.553-2.018-6.348-3.548c-1.795-1.531-3.206-3.344-4.234-5.442
		c-1.028-2.097-1.547-4.424-1.558-6.981l-0.033-7.8c-0.012-2.687,0.487-5.126,1.498-7.319c1.009-2.192,2.405-4.062,4.188-5.608
		c1.781-1.545,3.888-2.747,6.317-3.602c2.429-0.855,5.079-1.289,7.949-1.301c2.87-0.012,5.522,0.399,7.96,1.233
		c2.437,0.835,4.552,2.019,6.348,3.548c1.794,1.531,3.205,3.389,4.234,5.572c1.027,2.184,1.548,4.62,1.559,7.306l0.035,8.189
		l-27.825,0.118L985.998,205.963z M994.322,182.788c-0.076,1.82-0.538,3.361-1.385,4.621c-0.848,1.261-1.903,2.283-3.168,3.069
		c-1.267,0.785-2.657,1.366-4.174,1.74c-1.517,0.375-3.023,0.588-4.521,0.637c1.539,0.037,3.09,0.27,4.651,0.695
		c1.562,0.427,2.988,1.071,4.282,1.932c1.292,0.862,2.348,1.94,3.164,3.237c0.816,1.296,1.229,2.854,1.236,4.674
		c-0.008-1.82,0.36-3.381,1.104-4.685s1.726-2.401,2.949-3.295c1.223-0.893,2.593-1.56,4.109-2c1.516-0.439,3.023-0.684,4.521-0.734
		c-1.457-0.037-2.924-0.237-4.401-0.599c-1.479-0.361-2.822-0.931-4.031-1.706c-1.21-0.774-2.213-1.778-3.008-3.01
		C994.855,186.133,994.413,184.607,994.322,182.788z"/>
	<path d="M1050.192,182.909c2.983,2.436,4.489,6.666,4.515,12.688l0.109,25.805l-12.229,0.052l-0.104-24.505
		c-0.022-5.243-2.318-7.226-6.889-5.951l-5.234,1.452l0.123,29.055l-12.229,0.052l-0.174-41.015l12.229-0.052l0.008,1.95l7.106-1.46
		C1042.951,179.831,1047.208,180.474,1050.192,182.909z"/>
	<path d="M1083.015,221.283l-5.428,0.023c-2.829,0.012-5.181-0.444-7.056-1.368c-1.876-0.924-3.358-2.174-4.446-3.751
		c-1.089-1.577-1.854-3.415-2.301-5.515c-0.445-2.1-0.673-4.32-0.683-6.66l-0.056-13.195l-5.49,0.023l-0.044-10.399l5.49-0.023
		l-0.06-14.105l12.228-0.052l0.06,14.105l7.611-0.032l0.044,10.4l-7.611,0.032l0.06,14.105c0.01,2.124,0.442,3.66,1.299,4.609
		c0.856,0.95,2.034,1.422,3.531,1.415l2.808-0.012L1083.015,221.283z"/>
	<path d="M1102.921,222.304c-3.037-0.117-5.732-0.583-8.086-1.396c-2.354-0.814-4.323-1.878-5.909-3.193
		c-1.587-1.315-2.747-2.859-3.482-4.632c-0.735-1.773-0.982-3.679-0.741-5.717l11.229-0.047c-0.163,0.781-0.035,1.474,0.384,2.079
		c0.418,0.605,0.981,1.133,1.69,1.585c0.709,0.452,1.532,0.796,2.469,1.029c0.938,0.235,1.843,0.372,2.717,0.411
		c2.079,0.079,3.7-0.221,4.862-0.898c1.16-0.676,1.74-1.47,1.736-2.38c-0.003-0.65-0.37-1.201-1.099-1.653
		c-0.73-0.452-1.574-0.848-2.531-1.191l-10.997-3.724c-2.833-0.984-5.054-2.394-6.662-4.229c-1.609-1.834-2.419-4.074-2.431-6.717
		c-0.009-2.036,0.452-3.826,1.382-5.368c0.929-1.542,2.181-2.826,3.758-3.851c1.576-1.024,3.413-1.802,5.512-2.331
		c2.098-0.528,4.333-0.798,6.703-0.808c2.371-0.01,4.597,0.317,6.68,0.979c2.082,0.664,3.875,1.566,5.377,2.708
		c1.502,1.142,2.631,2.492,3.386,4.048c0.756,1.557,0.99,3.246,0.708,5.067l-10.606,0.045c0.038-0.65-0.098-1.202-0.411-1.656
		c-0.314-0.454-0.743-0.819-1.284-1.1c-0.542-0.279-1.156-0.482-1.843-0.609c-0.687-0.127-1.364-0.189-2.029-0.187
		c-1.414,0.006-2.619,0.206-3.615,0.6c-0.997,0.394-1.494,0.895-1.491,1.501c0.002,0.607,0.254,1.104,0.755,1.492
		c0.501,0.388,1.292,0.818,2.376,1.29l12.435,4.562c1.208,0.473,2.333,1.021,3.376,1.644c1.042,0.624,1.94,1.379,2.692,2.264
		c0.753,0.885,1.318,1.912,1.697,3.08c0.38,1.168,0.53,2.512,0.454,4.028c-0.116,1.95-0.67,3.763-1.661,5.435
		s-2.327,3.107-4.007,4.307c-1.679,1.198-3.662,2.117-5.946,2.755C1108.182,222.162,1105.666,222.422,1102.921,222.304z"/>
</g>
<g>
	<rect x="171.362" y="557.831" class="st61" width="170.467" height="75"/>
	<g>
		<path d="M190.265,576.065c1.92-0.008,3.675,0.164,5.268,0.518c1.591,0.354,2.951,0.903,4.079,1.647
			c1.128,0.746,2.01,1.709,2.645,2.892c0.635,1.183,0.956,2.583,0.963,4.203c0.009,2.07-0.449,3.812-1.373,5.227
			s-2.239,2.515-3.945,3.301c2.073,0.772,3.713,1.95,4.92,3.534c1.206,1.585,1.814,3.518,1.824,5.797
			c0.007,1.65-0.279,3.144-0.858,4.481c-0.579,1.338-1.415,2.481-2.506,3.431c-1.092,0.949-2.438,1.689-4.04,2.222
			c-1.604,0.531-3.425,0.802-5.465,0.811l-13.725,0.059l-0.161-38.07L190.265,576.065z M180.51,578.446l0.061,14.445l10.306-0.044
			c1.47-0.006,2.804-0.146,4.003-0.422c1.198-0.275,2.225-0.714,3.077-1.318c0.853-0.603,1.509-1.378,1.97-2.325
			c0.461-0.947,0.688-2.096,0.684-3.446c-0.006-1.29-0.251-2.384-0.734-3.282c-0.484-0.898-1.154-1.615-2.012-2.151
			c-0.857-0.537-1.887-0.922-3.087-1.157c-1.201-0.235-2.521-0.35-3.962-0.343L180.51,578.446z M180.581,595.231l0.069,16.604
			l11.655-0.049c1.47-0.007,2.804-0.208,4.003-0.603c1.197-0.395,2.224-0.962,3.075-1.7s1.508-1.633,1.969-2.686
			c0.46-1.052,0.688-2.253,0.682-3.603c-0.005-1.289-0.251-2.436-0.734-3.439c-0.484-1.003-1.155-1.847-2.013-2.534
			s-1.889-1.2-3.089-1.54c-1.202-0.339-2.522-0.507-3.962-0.5L180.581,595.231z"/>
		<path d="M229.995,596.327l-0.005-1.08c-0.012-2.79-0.77-4.789-2.275-5.998c-1.506-1.208-3.877-1.806-7.117-1.792
			c-1.5,0.006-2.812,0.199-3.936,0.579c-1.123,0.38-2.051,0.886-2.783,1.52c-0.732,0.633-1.277,1.355-1.633,2.167
			c-0.357,0.812-0.533,1.667-0.529,2.567l0.003,0.72l-2.61,0.011l-0.005-1.17c-0.005-1.08,0.23-2.139,0.706-3.175
			c0.476-1.038,1.199-1.97,2.171-2.799c0.972-0.829,2.177-1.494,3.614-1.995c1.438-0.501,3.102-0.756,4.992-0.764
			c4.05-0.018,7.061,0.795,9.033,2.437c1.971,1.642,2.964,4.053,2.978,7.232l0.081,19.215l-2.609,0.011l-0.018-4.229
			c-0.238,0.511-0.672,1.045-1.299,1.603c-0.628,0.558-1.398,1.078-2.311,1.562c-0.914,0.483-1.963,0.878-3.146,1.184
			c-1.185,0.305-2.421,0.46-3.71,0.466c-1.681,0.007-3.212-0.144-4.593-0.453c-1.382-0.31-2.568-0.792-3.562-1.448
			c-0.992-0.656-1.769-1.462-2.327-2.42c-0.56-0.958-0.841-2.096-0.847-3.416c-0.012-2.7,1.06-4.782,3.213-6.246
			c2.154-1.464,5.285-2.475,9.393-3.032L229.995,596.327z M220.875,599.921c-1.559,0.217-2.953,0.485-4.182,0.805
			c-1.229,0.321-2.277,0.752-3.145,1.295c-0.868,0.544-1.532,1.207-1.994,1.989s-0.689,1.728-0.686,2.838
			c0.008,1.8,0.764,3.153,2.268,4.062c1.504,0.909,3.65,1.357,6.44,1.345c1.229-0.005,2.467-0.175,3.711-0.51
			c1.243-0.336,2.366-0.828,3.368-1.478s1.816-1.447,2.443-2.395c0.625-0.948,0.936-2.021,0.931-3.222l-0.025-5.985L220.875,599.921
			z"/>
		<path d="M251.684,585.391c1.2-0.005,2.311,0.155,3.332,0.48c1.021,0.326,1.908,0.84,2.662,1.542
			c0.753,0.702,1.342,1.607,1.767,2.715c0.425,1.108,0.64,2.442,0.647,4.002l0.082,19.71l-2.609,0.011l-0.085-20.159
			c-0.009-2.01-0.556-3.523-1.64-4.539c-1.084-1.015-2.467-1.52-4.146-1.512c-2.189,0.009-4.273,0.363-6.25,1.062
			c-1.978,0.699-3.819,1.517-5.525,2.453l0.096,22.77l-2.609,0.011l-0.12-28.395l2.61-0.011l0.013,3.105
			c0.839-0.393,1.729-0.779,2.673-1.159c0.943-0.379,1.916-0.721,2.921-1.025c1.003-0.304,2.022-0.556,3.057-0.755
			C249.592,585.497,250.634,585.395,251.684,585.391z"/>
		<path d="M278.773,585.276c1.199-0.005,2.311,0.156,3.332,0.481c1.021,0.326,1.908,0.84,2.66,1.541
			c0.754,0.702,1.342,1.607,1.768,2.715c0.424,1.109,0.641,2.443,0.646,4.003l0.084,19.71l-2.61,0.011l-0.085-20.16
			c-0.009-2.01-0.555-3.523-1.64-4.539c-1.084-1.015-2.467-1.52-4.146-1.512c-2.19,0.009-4.273,0.363-6.251,1.062
			c-1.977,0.699-3.818,1.517-5.524,2.454l0.097,22.77l-2.61,0.011l-0.12-28.395l2.609-0.011l0.014,3.104
			c0.838-0.393,1.729-0.779,2.673-1.159c0.943-0.378,1.917-0.72,2.921-1.025c1.004-0.304,2.022-0.556,3.057-0.755
			C276.681,585.383,277.723,585.28,278.773,585.276z"/>
		<path d="M303.77,611.9c1.5-0.007,2.842-0.2,4.025-0.58c1.184-0.38,2.186-0.887,3.008-1.52c0.823-0.634,1.45-1.356,1.882-2.168
			c0.431-0.812,0.646-1.668,0.642-2.568l-0.002-0.495l2.609-0.011l0.004,0.945c0.006,1.08-0.268,2.139-0.818,3.176
			s-1.35,1.971-2.396,2.8c-1.047,0.829-2.326,1.495-3.838,1.997c-1.514,0.501-3.215,0.756-5.105,0.764
			c-2.01,0.009-3.803-0.292-5.381-0.899c-1.577-0.609-2.908-1.443-3.992-2.503c-1.086-1.062-1.908-2.31-2.469-3.748
			c-0.562-1.438-0.846-2.981-0.853-4.631l-0.024-5.94c-0.008-1.65,0.264-3.196,0.812-4.638c0.549-1.443,1.361-2.698,2.437-3.768
			c1.075-1.069,2.399-1.915,3.972-2.537s3.363-0.938,5.373-0.946s3.805,0.292,5.382,0.9c1.577,0.608,2.909,1.443,3.993,2.503
			c1.084,1.061,1.906,2.31,2.468,3.748c0.562,1.438,0.845,2.982,0.853,4.631l0.016,3.87l-22.679,0.096l0.007,1.62
			c0.006,1.439,0.229,2.774,0.67,4.002c0.439,1.229,1.09,2.275,1.947,3.142c0.859,0.866,1.912,1.545,3.159,2.034
			C300.717,611.666,302.15,611.907,303.77,611.9z M313.741,596.873c-0.006-1.439-0.229-2.773-0.669-4.002
			c-0.441-1.229-1.09-2.275-1.949-3.142c-0.857-0.866-1.912-1.544-3.157-2.034c-1.248-0.49-2.681-0.731-4.302-0.724
			c-1.619,0.007-3.051,0.26-4.293,0.761c-1.244,0.5-2.291,1.188-3.143,2.061c-0.851,0.874-1.492,1.927-1.921,3.158
			c-0.431,1.232-0.642,2.568-0.636,4.008l0.006,1.215l20.068-0.085L313.741,596.873z"/>
		<path d="M323.081,591.884c0.476-0.992,1.124-1.925,1.945-2.799c0.821-0.873,1.755-1.627,2.804-2.262
			c1.046-0.634,2.207-1.119,3.48-1.455s2.6-0.461,3.98-0.377l0.012,2.52c-1.471-0.084-2.851,0.073-4.139,0.468
			c-1.289,0.396-2.448,0.955-3.48,1.68c-1.031,0.724-1.936,1.591-2.711,2.599c-0.776,1.009-1.402,2.084-1.877,3.226l0.076,18.09
			l-2.699,0.012l-0.121-28.44l2.701-0.011L323.081,591.884z"/>
	</g>
</g>
<g>
	<rect x="348.16" y="226.83" class="st61" width="187.393" height="70.391"/>
	<g>
		<path d="M426.946,275.913l-3.555,0.015l-9.051-33.172l-8.77,33.247l-3.555,0.015L392,237.99l2.79-0.012l9.059,34.882l9.167-34.959
			l2.609-0.011l9.463,34.88l8.312-34.956l2.79-0.012L426.946,275.913z"/>
		<path d="M450.113,274.06c1.5-0.006,2.842-0.2,4.025-0.58c1.184-0.38,2.186-0.887,3.009-1.52c0.822-0.634,1.449-1.356,1.881-2.168
			c0.431-0.812,0.646-1.668,0.642-2.568l-0.002-0.495l2.61-0.011l0.004,0.945c0.004,1.08-0.27,2.139-0.819,3.176
			c-0.552,1.038-1.35,1.971-2.396,2.8c-1.047,0.83-2.327,1.495-3.839,1.997c-1.514,0.501-3.215,0.756-5.105,0.764
			c-2.01,0.009-3.803-0.292-5.381-0.899c-1.577-0.608-2.908-1.443-3.993-2.503c-1.085-1.061-1.907-2.309-2.469-3.747
			c-0.562-1.438-0.845-2.981-0.852-4.631l-0.025-5.94c-0.007-1.649,0.264-3.196,0.812-4.639c0.55-1.442,1.361-2.698,2.438-3.768
			c1.075-1.069,2.399-1.915,3.972-2.537c1.572-0.621,3.363-0.937,5.373-0.945c2.01-0.009,3.804,0.292,5.382,0.899
			c1.577,0.609,2.908,1.443,3.993,2.503c1.084,1.061,1.907,2.309,2.468,3.747c0.562,1.438,0.846,2.982,0.853,4.631l0.017,3.87
			l-22.68,0.096l0.007,1.62c0.006,1.44,0.229,2.774,0.669,4.002c0.439,1.229,1.09,2.276,1.948,3.142
			c0.858,0.866,1.911,1.544,3.158,2.034S448.494,274.066,450.113,274.06z M460.085,259.032c-0.006-1.44-0.229-2.773-0.669-4.002
			c-0.44-1.228-1.09-2.275-1.948-3.142c-0.858-0.866-1.912-1.544-3.159-2.034c-1.247-0.49-2.681-0.731-4.301-0.725
			c-1.619,0.007-3.052,0.261-4.294,0.761c-1.243,0.5-2.29,1.188-3.142,2.061c-0.851,0.874-1.492,1.927-1.922,3.158
			c-0.43,1.232-0.641,2.568-0.635,4.008l0.005,1.215l20.07-0.085L460.085,259.032z"/>
		<path d="M469.265,237.663l0.041,9.63l9.314-0.039c2.07-0.009,3.887,0.336,5.45,1.034c1.562,0.699,2.863,1.668,3.904,2.909
			c1.04,1.241,1.826,2.715,2.358,4.422c0.531,1.708,0.803,3.552,0.812,5.532c0.008,2.01-0.225,3.894-0.696,5.65
			c-0.473,1.757-1.209,3.291-2.209,4.6c-0.999,1.309-2.284,2.35-3.856,3.121c-1.571,0.772-3.452,1.162-5.643,1.171l-11.925,0.051
			l-0.161-38.07L469.265,237.663z M469.315,249.633l0.101,23.76l9.99-0.042c1.529-0.006,2.862-0.335,4-0.984
			c1.138-0.65,2.086-1.532,2.847-2.645c0.76-1.113,1.332-2.405,1.716-3.877c0.383-1.471,0.572-3.032,0.565-4.682
			c-0.007-1.59-0.216-3.089-0.627-4.498c-0.411-1.408-1.001-2.635-1.77-3.683c-0.77-1.046-1.734-1.875-2.891-2.485
			c-1.158-0.609-2.473-0.912-3.941-0.906L469.315,249.633z M478.296,266.38c-0.097-1.77-0.492-2.983-1.185-3.64
			c-0.693-0.656-1.775-1.012-3.245-1.066c1.47-0.066,2.548-0.43,3.235-1.093c0.687-0.663,1.072-1.879,1.155-3.65
			c0.097,1.77,0.484,2.983,1.162,3.64c0.678,0.658,1.767,1.013,3.268,1.066c-1.5,0.067-2.586,0.432-3.258,1.094
			C478.757,263.394,478.379,264.61,478.296,266.38z"/>
	</g>
	<g>
		<rect x="254.44" y="624.878" class="st14" width="2.156" height="0.802"/>
	</g>
	<g>
		<rect x="-226.669" y="187.147" class="st14" width="483.264" height="437.731"/>
	</g>
</g>
<g>
	<rect x="845.049" y="852.057" class="st61" width="199.662" height="75"/>
	<g>
		<path d="M886.324,865.56l12.24-0.052c2.91-0.012,5.409,0.435,7.498,1.341c2.089,0.907,3.797,2.189,5.124,3.849
			s2.303,3.65,2.928,5.973c0.624,2.322,0.943,4.878,0.955,7.668c0.013,2.79-0.285,5.364-0.89,7.721
			c-0.605,2.358-1.564,4.388-2.877,6.087s-3.002,3.028-5.068,3.981s-4.555,1.437-7.464,1.449l-12.284,0.052L886.324,865.56z
			 M898.76,901.237c2.49-0.011,4.596-0.433,6.318-1.266c1.721-0.834,3.111-1.996,4.17-3.487c1.059-1.491,1.823-3.267,2.295-5.327
			c0.471-2.059,0.701-4.321,0.691-6.784c-0.011-2.463-0.26-4.715-0.748-6.756c-0.49-2.041-1.27-3.787-2.34-5.24
			c-1.072-1.452-2.472-2.572-4.199-3.361c-1.729-0.789-3.838-1.178-6.328-1.168l-9.585,0.041l0.142,33.389L898.76,901.237z
			 M900.375,889.261c-0.098-1.77-0.492-2.982-1.186-3.64c-0.693-0.657-1.775-1.012-3.244-1.066c1.469-0.066,2.547-0.431,3.234-1.094
			c0.688-0.663,1.072-1.879,1.155-3.65c0.098,1.771,0.485,2.983,1.163,3.64c0.678,0.658,1.766,1.013,3.268,1.066
			c-1.501,0.067-2.586,0.431-3.259,1.093C900.835,886.274,900.457,887.49,900.375,889.261z"/>
		<path d="M931.162,901.686c1.5-0.007,2.842-0.2,4.025-0.58c1.184-0.38,2.186-0.887,3.008-1.52c0.823-0.634,1.45-1.356,1.882-2.168
			c0.431-0.812,0.646-1.668,0.642-2.568l-0.002-0.495l2.609-0.012l0.004,0.945c0.006,1.08-0.268,2.139-0.818,3.176
			s-1.35,1.97-2.396,2.8c-1.047,0.829-2.326,1.495-3.838,1.996c-1.514,0.501-3.215,0.756-5.105,0.764
			c-2.01,0.009-3.803-0.292-5.381-0.9c-1.578-0.609-2.908-1.443-3.993-2.503c-1.084-1.061-1.907-2.31-2.468-3.747
			c-0.562-1.438-0.846-2.981-0.853-4.631l-0.024-5.94c-0.008-1.65,0.264-3.196,0.812-4.639s1.361-2.698,2.436-3.768
			c1.076-1.069,2.4-1.915,3.973-2.537c1.572-0.621,3.363-0.937,5.373-0.945s3.805,0.292,5.381,0.9
			c1.578,0.608,2.91,1.443,3.994,2.503c1.084,1.061,1.906,2.31,2.468,3.747s0.845,2.982,0.853,4.632l0.016,3.87l-22.68,0.096
			l0.008,1.62c0.006,1.44,0.229,2.774,0.669,4.002c0.44,1.229,1.09,2.275,1.948,3.142c0.859,0.866,1.912,1.545,3.158,2.034
			C928.108,901.451,929.543,901.692,931.162,901.686z M941.135,886.658c-0.007-1.44-0.23-2.773-0.67-4.002
			c-0.441-1.228-1.09-2.275-1.948-3.142c-0.858-0.866-1.913-1.544-3.159-2.035c-1.247-0.489-2.681-0.73-4.301-0.724
			c-1.619,0.007-3.051,0.26-4.294,0.76c-1.243,0.5-2.29,1.188-3.142,2.061c-0.852,0.874-1.492,1.927-1.922,3.158
			c-0.43,1.232-0.641,2.568-0.635,4.008l0.005,1.215l20.069-0.085L941.135,886.658z"/>
		<path d="M956.865,903.332c-2.131,0.009-3.693-0.675-4.689-2.051c-0.996-1.376-1.498-3.173-1.508-5.394l-0.079-18.63l-4.185,0.018
			l-0.01-2.34l4.274-0.018l-0.04-9.63l2.699-0.012l0.041,9.63l5.85-0.024l0.01,2.34l-5.85,0.024l0.08,18.81
			c0.006,1.5,0.281,2.699,0.825,3.596c0.544,0.898,1.61,1.343,3.2,1.337l2.295-0.01l0.01,2.34L956.865,903.332z"/>
		<path d="M984.194,885.576l-0.005-1.08c-0.012-2.79-0.771-4.789-2.275-5.998c-1.506-1.209-3.877-1.806-7.117-1.792
			c-1.5,0.006-2.812,0.2-3.936,0.579c-1.123,0.38-2.051,0.886-2.783,1.519c-0.732,0.633-1.277,1.355-1.633,2.167
			c-0.357,0.812-0.533,1.667-0.529,2.567l0.003,0.72l-2.61,0.011l-0.005-1.17c-0.005-1.08,0.231-2.138,0.706-3.175
			c0.476-1.037,1.199-1.97,2.172-2.799c0.971-0.829,2.176-1.495,3.613-1.996s3.102-0.755,4.992-0.764
			c4.049-0.017,7.061,0.796,9.033,2.438c1.971,1.642,2.964,4.053,2.977,7.232l0.082,19.215l-2.609,0.011l-0.019-4.23
			c-0.238,0.511-0.671,1.044-1.298,1.603c-0.628,0.558-1.398,1.078-2.311,1.562c-0.914,0.483-1.963,0.878-3.146,1.183
			c-1.185,0.305-2.421,0.46-3.71,0.465c-1.682,0.008-3.212-0.144-4.592-0.453c-1.382-0.309-2.568-0.792-3.562-1.448
			c-0.993-0.656-1.769-1.463-2.328-2.42c-0.56-0.958-0.841-2.096-0.847-3.416c-0.012-2.7,1.06-4.782,3.213-6.247
			c2.154-1.463,5.284-2.475,9.393-3.032L984.194,885.576z M975.074,889.17c-1.56,0.217-2.953,0.484-4.182,0.805
			c-1.229,0.32-2.276,0.752-3.145,1.296c-0.867,0.544-1.532,1.207-1.994,1.989c-0.462,0.782-0.689,1.728-0.686,2.838
			c0.008,1.799,0.764,3.154,2.268,4.063c1.504,0.908,3.65,1.356,6.44,1.345c1.229-0.005,2.467-0.175,3.71-0.511
			c1.244-0.335,2.367-0.828,3.369-1.477c1.002-0.649,1.816-1.448,2.442-2.395c0.626-0.948,0.937-2.021,0.932-3.221l-0.025-5.985
			L975.074,889.17z"/>
		<path d="M993.369,863.172c0.6-0.002,1.148,0.213,1.646,0.646c0.496,0.434,0.747,1.025,0.749,1.774
			c0.004,0.78-0.241,1.389-0.734,1.826c-0.492,0.437-1.04,0.656-1.64,0.659c-0.601,0.002-1.147-0.213-1.646-0.646
			c-0.496-0.433-0.746-1.039-0.75-1.819c-0.003-0.75,0.242-1.344,0.735-1.781S992.769,863.175,993.369,863.172z M992.233,903.182
			l-0.12-28.44l2.609-0.011l0.121,28.439L992.233,903.182z"/>
		<path d="M1000.262,865.078l2.61-0.011l0.146,34.695c0.003,0.569,0.14,0.981,0.41,1.235c0.271,0.253,0.571,0.38,0.901,0.379
			l1.305-0.006l0.011,2.34l-1.8,0.008c-1.08,0.005-1.922-0.329-2.524-1.002c-0.604-0.672-0.907-1.714-0.913-3.123L1000.262,865.078z
			"/>
	</g>
</g>
<g>
	<rect x="1112.408" y="629.452" class="st61" width="200" height="75.127"/>
	<g>
		<path d="M1151.828,643.027l23.804-0.101l0.011,2.34l-21.195,0.089l0.062,14.76l20.295-0.085l0.01,2.34l-20.295,0.085l0.069,16.335
			l8.415-0.035c2.25-0.01,4.462-0.057,6.637-0.141c2.174-0.084,4.221-0.251,6.141-0.499l0.01,2.34
			c-1.92,0.248-4.004,0.414-6.254,0.499c-2.248,0.084-4.498,0.132-6.748,0.142l-10.801,0.046L1151.828,643.027z"/>
		<path d="M1193.027,680.923l-3.42,0.015l-11.685-28.391l2.745-0.011l10.641,26.055l10.419-26.144l2.745-0.012L1193.027,680.923z"/>
		<path d="M1219.029,679.058c1.5-0.006,2.842-0.2,4.025-0.58c1.184-0.38,2.186-0.887,3.009-1.52
			c0.822-0.634,1.449-1.356,1.881-2.168c0.431-0.812,0.646-1.668,0.642-2.568l-0.002-0.495l2.61-0.011l0.004,0.944
			c0.005,1.08-0.269,2.139-0.819,3.176c-0.551,1.038-1.35,1.971-2.396,2.801c-1.047,0.829-2.327,1.494-3.839,1.996
			c-1.514,0.501-3.215,0.756-5.105,0.764c-2.01,0.009-3.803-0.292-5.381-0.899c-1.576-0.609-2.908-1.443-3.992-2.503
			c-1.085-1.061-1.908-2.31-2.469-3.747c-0.562-1.438-0.846-2.981-0.852-4.632l-0.025-5.939c-0.008-1.65,0.264-3.196,0.812-4.639
			s1.361-2.698,2.437-3.768c1.075-1.069,2.399-1.915,3.972-2.537c1.572-0.621,3.363-0.937,5.373-0.945
			c2.01-0.009,3.805,0.292,5.382,0.899c1.577,0.608,2.909,1.443,3.993,2.503c1.084,1.061,1.906,2.309,2.469,3.747
			c0.561,1.438,0.845,2.982,0.852,4.631l0.017,3.87l-22.679,0.096l0.006,1.62c0.006,1.44,0.229,2.774,0.67,4.002
			c0.439,1.229,1.09,2.276,1.948,3.142c0.858,0.866,1.911,1.544,3.158,2.034C1215.977,678.823,1217.41,679.064,1219.029,679.058z
			 M1229.002,664.03c-0.006-1.439-0.23-2.773-0.67-4.002c-0.44-1.228-1.09-2.275-1.948-3.142s-1.912-1.545-3.159-2.035
			s-2.68-0.731-4.301-0.724c-1.619,0.007-3.051,0.261-4.293,0.761c-1.243,0.5-2.29,1.188-3.142,2.061
			c-0.851,0.874-1.492,1.927-1.922,3.158c-0.43,1.232-0.642,2.568-0.636,4.008l0.006,1.215l20.069-0.085L1229.002,664.03z"/>
		<path d="M1250.012,652.196c1.199-0.005,2.311,0.155,3.332,0.481c1.021,0.326,1.908,0.84,2.661,1.542
			c0.753,0.702,1.342,1.607,1.767,2.715c0.424,1.108,0.641,2.443,0.646,4.002l0.084,19.709l-2.609,0.011l-0.086-20.16
			c-0.008-2.01-0.555-3.522-1.639-4.538c-1.085-1.015-2.467-1.52-4.146-1.513c-2.19,0.009-4.273,0.363-6.251,1.062
			c-1.978,0.699-3.819,1.517-5.524,2.453l0.096,22.77l-2.609,0.011l-0.121-28.395l2.61-0.012l0.013,3.105
			c0.839-0.393,1.729-0.779,2.674-1.159c0.943-0.378,1.916-0.72,2.92-1.024c1.004-0.304,2.022-0.556,3.057-0.756
			C1247.92,652.303,1248.961,652.201,1250.012,652.196z"/>
		<path d="M1271.821,680.589c-2.13,0.009-3.692-0.675-4.688-2.05c-0.996-1.376-1.498-3.173-1.508-5.394l-0.078-18.63l-4.186,0.018
			l-0.01-2.34l4.275-0.018l-0.041-9.63l2.699-0.012l0.041,9.63l5.85-0.025l0.01,2.34l-5.85,0.025l0.08,18.81
			c0.006,1.501,0.281,2.699,0.824,3.597c0.545,0.897,1.611,1.343,3.201,1.336l2.295-0.009l0.01,2.34L1271.821,680.589z"/>
	</g>
</g>
<rect x="1546.337" y="727.171" class="st61" width="201.165" height="130.976"/>
<g>
	<path d="M1585.425,761.322l2.699-0.012l13.286,34.459l13.039-34.57l2.699-0.012l-14.195,37.771l-3.015,0.013L1585.425,761.322z"/>
	<path d="M1629.046,797.093c1.5-0.006,2.842-0.2,4.025-0.58c1.183-0.38,2.187-0.887,3.008-1.52c0.823-0.634,1.45-1.356,1.882-2.168
		c0.431-0.812,0.645-1.668,0.641-2.568l-0.002-0.495l2.61-0.011l0.004,0.945c0.005,1.08-0.269,2.139-0.819,3.176
		c-0.551,1.038-1.35,1.971-2.396,2.801c-1.047,0.829-2.327,1.494-3.839,1.996c-1.514,0.501-3.215,0.756-5.104,0.764
		c-2.011,0.009-3.804-0.292-5.382-0.899c-1.576-0.609-2.908-1.443-3.992-2.503c-1.085-1.061-1.907-2.31-2.469-3.748
		c-0.561-1.438-0.846-2.981-0.852-4.631l-0.025-5.939c-0.008-1.65,0.264-3.196,0.812-4.639s1.361-2.698,2.438-3.768
		c1.075-1.069,2.398-1.915,3.971-2.537c1.573-0.621,3.363-0.937,5.374-0.945c2.01-0.009,3.804,0.292,5.382,0.899
		c1.576,0.608,2.908,1.443,3.992,2.503c1.084,1.061,1.907,2.309,2.469,3.747c0.561,1.438,0.845,2.982,0.852,4.631l0.017,3.87
		l-22.679,0.096l0.006,1.62c0.007,1.44,0.229,2.774,0.67,4.002c0.439,1.229,1.09,2.276,1.948,3.142
		c0.858,0.866,1.911,1.544,3.159,2.034C1625.992,796.858,1627.426,797.1,1629.046,797.093z M1639.018,782.065
		c-0.006-1.439-0.23-2.773-0.67-4.002c-0.44-1.228-1.09-2.275-1.948-3.142s-1.911-1.545-3.157-2.035
		c-1.248-0.49-2.682-0.731-4.302-0.724s-3.052,0.261-4.294,0.761c-1.243,0.5-2.29,1.188-3.142,2.061
		c-0.851,0.874-1.492,1.927-1.921,3.158c-0.431,1.232-0.643,2.568-0.637,4.008l0.006,1.215l20.069-0.085L1639.018,782.065z"/>
	<path d="M1669.077,760.608l0.161,38.069l-11.926,0.051c-2.189,0.009-4.074-0.365-5.652-1.124c-1.578-0.758-2.873-1.788-3.883-3.088
		c-1.012-1.301-1.76-2.828-2.247-4.581s-0.735-3.634-0.743-5.645c-0.009-1.98,0.246-3.826,0.764-5.538s1.291-3.193,2.321-4.442
		c1.03-1.249,2.322-2.229,3.88-2.941c1.557-0.711,3.371-1.072,5.44-1.081l9.315-0.04l-0.041-9.63L1669.077,760.608z
		 M1656.527,772.631c-1.5,0.006-2.818,0.32-3.956,0.939c-1.138,0.62-2.087,1.457-2.847,2.51c-0.761,1.054-1.34,2.286-1.74,3.697
		c-0.398,1.412-0.595,2.913-0.588,4.503c0.007,1.65,0.201,3.209,0.582,4.677c0.381,1.469,0.957,2.756,1.727,3.863
		s1.732,1.98,2.891,2.62s2.502,0.957,4.032,0.951l9.989-0.042l-0.1-23.76L1656.527,772.631z M1657.639,779.962
		c0.098,1.77,0.484,2.983,1.162,3.64c0.678,0.658,1.767,1.013,3.268,1.066c-1.5,0.067-2.586,0.432-3.258,1.094
		c-0.672,0.663-1.05,1.88-1.132,3.65c-0.099-1.769-0.493-2.983-1.187-3.64c-0.693-0.657-1.774-1.012-3.244-1.066
		c1.469-0.066,2.548-0.431,3.235-1.094C1657.171,782.949,1657.556,781.732,1657.639,779.962z"/>
	<path d="M1675.054,758.647c0.6-0.002,1.148,0.213,1.646,0.646c0.496,0.434,0.746,1.025,0.75,1.775
		c0.003,0.78-0.242,1.389-0.734,1.826c-0.494,0.437-1.041,0.656-1.641,0.659c-0.601,0.002-1.148-0.212-1.645-0.646
		c-0.498-0.433-0.748-1.039-0.751-1.819c-0.003-0.75,0.241-1.343,0.735-1.781C1673.907,758.871,1674.453,758.65,1675.054,758.647z
		 M1673.918,798.658l-0.121-28.44l2.611-0.011l0.119,28.44L1673.918,798.658z"/>
	<path d="M1693.954,769.548c2.07-0.009,3.901,0.292,5.494,0.899c1.593,0.608,2.938,1.443,4.038,2.503
		c1.1,1.061,1.938,2.31,2.514,3.747c0.575,1.438,0.867,2.981,0.874,4.631l0.025,5.94c0.007,1.65-0.272,3.196-0.835,4.639
		c-0.564,1.442-1.393,2.698-2.482,3.768c-1.091,1.069-2.43,1.915-4.017,2.537c-1.588,0.622-3.416,0.937-5.486,0.946
		c-2.069,0.009-3.901-0.292-5.493-0.899c-1.594-0.608-2.939-1.443-4.039-2.502c-1.1-1.061-1.937-2.31-2.513-3.747
		c-0.575-1.438-0.868-2.981-0.874-4.632l-0.025-5.939c-0.008-1.649,0.271-3.196,0.835-4.639s1.392-2.698,2.481-3.768
		c1.09-1.069,2.429-1.915,4.018-2.537C1690.055,769.873,1691.885,769.557,1693.954,769.548z M1683.768,786.916
		c0.007,1.44,0.236,2.774,0.691,4.002c0.455,1.229,1.112,2.276,1.971,3.142c0.859,0.866,1.926,1.544,3.204,2.034
		c1.276,0.49,2.755,0.731,4.436,0.724c1.649-0.007,3.118-0.26,4.407-0.761c1.287-0.5,2.357-1.188,3.209-2.061
		c0.851-0.874,1.499-1.926,1.943-3.159c0.445-1.231,0.665-2.567,0.658-4.008l-0.021-5.04c-0.006-1.439-0.236-2.773-0.691-4.002
		c-0.455-1.228-1.112-2.274-1.971-3.142c-0.859-0.866-1.935-1.544-3.227-2.034c-1.293-0.49-2.764-0.731-4.413-0.724
		c-1.681,0.007-3.157,0.261-4.429,0.762c-1.273,0.5-2.336,1.188-3.188,2.061c-0.851,0.874-1.498,1.927-1.943,3.158
		c-0.445,1.232-0.664,2.568-0.658,4.008L1683.768,786.916z M1694.036,788.897c-0.098-1.769-0.493-2.982-1.186-3.64
		c-0.693-0.657-1.774-1.012-3.245-1.066c1.47-0.066,2.549-0.431,3.236-1.094c0.688-0.662,1.072-1.879,1.154-3.649
		c0.098,1.77,0.485,2.983,1.162,3.64c0.679,0.657,1.768,1.013,3.268,1.066c-1.5,0.066-2.586,0.432-3.258,1.094
		C1694.496,785.911,1694.118,787.128,1694.036,788.897z"/>
	<path d="M1625.132,823.84c1.86-0.008,3.534,0.24,5.021,0.744c1.488,0.504,2.758,1.174,3.812,2.009
		c1.054,0.836,1.859,1.8,2.419,2.892c0.561,1.093,0.842,2.239,0.848,3.439l0.005,1.26l-2.609,0.011l-0.003-0.81
		c-0.005-0.99-0.227-1.927-0.665-2.81s-1.064-1.653-1.878-2.31c-0.812-0.656-1.805-1.17-2.976-1.54
		c-1.172-0.37-2.493-0.552-3.963-0.546c-1.649,0.007-3.111,0.261-4.384,0.761c-1.273,0.501-2.351,1.188-3.232,2.062
		c-0.881,0.874-1.551,1.927-2.012,3.158c-0.459,1.232-0.686,2.568-0.68,4.008l0.021,5.04c0.006,1.44,0.244,2.774,0.715,4.002
		c0.469,1.229,1.148,2.275,2.037,3.142s1.972,1.544,3.25,2.034c1.276,0.489,2.74,0.73,4.39,0.724
		c1.47-0.006,2.789-0.207,3.958-0.602c1.168-0.396,2.156-0.925,2.963-1.588c0.808-0.664,1.426-1.431,1.857-2.303
		c0.432-0.872,0.646-1.803,0.641-2.793l-0.003-0.81l2.609-0.011l0.005,1.26c0.006,1.17-0.268,2.304-0.817,3.4
		c-0.551,1.098-1.349,2.076-2.395,2.936c-1.048,0.859-2.312,1.547-3.794,2.063c-1.482,0.516-3.154,0.778-5.015,0.786
		c-2.04,0.009-3.864-0.291-5.472-0.899s-2.969-1.442-4.082-2.502c-1.115-1.061-1.968-2.309-2.559-3.747
		c-0.592-1.438-0.891-2.981-0.897-4.632l-0.025-5.939c-0.007-1.65,0.279-3.196,0.858-4.639s1.421-2.698,2.527-3.769
		c1.104-1.069,2.459-1.915,4.061-2.537C1621.27,824.164,1623.092,823.848,1625.132,823.84z"/>
	<path d="M1641.652,814.725l2.609-0.011l0.147,34.695c0.003,0.569,0.139,0.981,0.41,1.236c0.271,0.253,0.571,0.38,0.901,0.378
		l1.305-0.005l0.01,2.34l-1.799,0.007c-1.08,0.004-1.922-0.329-2.525-1.001c-0.603-0.673-0.906-1.714-0.912-3.124L1641.652,814.725z
		"/>
	<path d="M1651.499,812.748c0.6-0.003,1.148,0.213,1.646,0.646c0.496,0.433,0.746,1.025,0.75,1.774
		c0.002,0.78-0.242,1.389-0.735,1.825c-0.493,0.438-1.04,0.657-1.64,0.66c-0.601,0.002-1.148-0.212-1.646-0.646
		c-0.497-0.432-0.747-1.039-0.75-1.819c-0.003-0.75,0.241-1.343,0.735-1.781C1650.353,812.971,1650.898,812.75,1651.499,812.748z
		 M1650.363,852.758l-0.121-28.44l2.611-0.011l0.119,28.439L1650.363,852.758z"/>
	<path d="M1658.148,863.705l-0.166-39.419l11.925-0.05c2.19-0.009,4.074,0.365,5.652,1.124s2.872,1.788,3.884,3.088
		c1.01,1.301,1.759,2.828,2.246,4.581s0.736,3.635,0.744,5.645c0.008,1.98-0.247,3.826-0.764,5.539
		c-0.519,1.712-1.292,3.2-2.321,4.465c-1.03,1.264-2.323,2.252-3.88,2.964c-1.558,0.711-3.371,1.071-5.441,1.08l-9.314,0.04
		l0.046,10.935L1658.148,863.705z M1670.693,850.377c1.469-0.006,2.781-0.319,3.934-0.939c1.151-0.62,2.108-1.457,2.869-2.51
		s1.34-2.292,1.739-3.72c0.399-1.426,0.595-2.935,0.588-4.525c-0.007-1.65-0.208-3.209-0.604-4.678
		c-0.396-1.468-0.979-2.756-1.749-3.862c-0.77-1.106-1.726-1.98-2.868-2.621c-1.144-0.64-2.479-0.957-4.01-0.951l-9.99,0.042
		l0.102,23.805L1670.693,850.377z M1669.582,843.002c-0.098-1.77-0.493-2.983-1.186-3.641c-0.693-0.656-1.775-1.012-3.245-1.066
		c1.47-0.065,2.548-0.43,3.235-1.093c0.688-0.663,1.072-1.879,1.155-3.65c0.097,1.77,0.485,2.983,1.163,3.64
		c0.678,0.657,1.766,1.013,3.267,1.066c-1.5,0.067-2.586,0.432-3.258,1.094C1670.042,840.015,1669.664,841.231,1669.582,843.002z"/>
</g>
</svg>
